<svg width="73" height="16" viewBox="0 0 73 16" fill="none" xmlns="http://www.w3.org/2000/svg">
<path d="M4.09424 14.1538C1.8457 14.1538 0.439453 12.6084 0.439453 10.1401V10.1328C0.439453 7.69385 1.875 6.14844 4.07227 6.14844C6.05713 6.14844 7.2583 7.42285 7.39014 8.87305L7.39746 8.92432H5.88867L5.87402 8.86572C5.70557 8.11133 5.11963 7.47412 4.08691 7.47412C2.85645 7.47412 2.05811 8.49951 2.05811 10.1475V10.1548C2.05811 11.8394 2.87109 12.8281 4.09424 12.8281C5.06836 12.8281 5.69092 12.2642 5.88135 11.4292L5.88867 11.3706H7.41211L7.40479 11.4219C7.23633 12.9673 5.94727 14.1538 4.09424 14.1538ZM11.3933 14.1538C9.18135 14.1538 7.73848 12.623 7.73848 10.1475V10.1328C7.73848 7.67188 9.196 6.14844 11.3859 6.14844C13.5832 6.14844 15.048 7.66455 15.048 10.1328V10.1475C15.048 12.6304 13.5979 14.1538 11.3933 14.1538ZM11.4006 12.8281C12.6384 12.8281 13.4294 11.8467 13.4294 10.1475V10.1328C13.4294 8.44824 12.6237 7.47412 11.3859 7.47412C10.1701 7.47412 9.35713 8.44824 9.35713 10.1328V10.1475C9.35713 11.854 10.1628 12.8281 11.4006 12.8281ZM15.8212 14V6.29492H17.4032V7.61328H17.4398C17.6889 6.7124 18.3334 6.14844 19.2123 6.14844C19.4394 6.14844 19.6371 6.18506 19.7616 6.20703V7.6792C19.6371 7.62793 19.3588 7.59131 19.0512 7.59131C18.0331 7.59131 17.4032 8.25781 17.4032 9.40771V14H15.8212ZM22.3951 14.1392C20.857 14.1392 19.8243 13.1943 19.8243 11.8101V11.7954C19.8243 10.4551 20.8644 9.63477 22.6881 9.5249L24.7828 9.40039V8.82178C24.7828 7.97217 24.2335 7.45947 23.2521 7.45947C22.3365 7.45947 21.7726 7.8916 21.6407 8.50684L21.6261 8.57275H20.1319L20.1393 8.49219C20.2491 7.1665 21.399 6.14844 23.296 6.14844C25.1783 6.14844 26.3722 7.14453 26.3722 8.68994V14H24.7828V12.7842H24.7535C24.3067 13.6118 23.4132 14.1392 22.3951 14.1392ZM21.421 11.7734C21.421 12.4473 21.9776 12.8721 22.8272 12.8721C23.9405 12.8721 24.7828 12.1177 24.7828 11.1143V10.5137L22.9005 10.6309C21.9483 10.6895 21.421 11.1069 21.421 11.7588V11.7734ZM30.346 14.1538C28.4197 14.1538 27.2918 13.2017 27.1307 11.7954L27.1233 11.7295H28.6907L28.7054 11.8027C28.8519 12.5132 29.3792 12.9307 30.3533 12.9307C31.3055 12.9307 31.8768 12.5352 31.8768 11.9126V11.9053C31.8768 11.4072 31.5984 11.1216 30.7708 10.9238L29.511 10.6382C28.0462 10.3013 27.3211 9.59814 27.3211 8.47754V8.47021C27.3211 7.09326 28.5223 6.14844 30.2947 6.14844C32.1185 6.14844 33.2171 7.1665 33.2977 8.47754L33.305 8.56543H31.8182L31.8108 8.51416C31.7156 7.84033 31.1883 7.37158 30.2947 7.37158C29.4451 7.37158 28.9104 7.77441 28.9104 8.38965V8.39697C28.9104 8.87305 29.2254 9.19531 30.053 9.39307L31.3055 9.67871C32.8802 10.0449 33.4808 10.6675 33.4808 11.7734V11.7808C33.4808 13.187 32.1624 14.1538 30.346 14.1538ZM37.5718 14.1538C35.3232 14.1538 33.917 12.6084 33.917 10.1401V10.1328C33.917 7.69385 35.3525 6.14844 37.5498 6.14844C39.5347 6.14844 40.7358 7.42285 40.8677 8.87305L40.875 8.92432H39.3662L39.3516 8.86572C39.1831 8.11133 38.5972 7.47412 37.5645 7.47412C36.334 7.47412 35.5356 8.49951 35.5356 10.1475V10.1548C35.5356 11.8394 36.3486 12.8281 37.5718 12.8281C38.5459 12.8281 39.1685 12.2642 39.3589 11.4292L39.3662 11.3706H40.8896L40.8823 11.4219C40.7139 12.9673 39.4248 14.1538 37.5718 14.1538ZM43.8234 14.1392C42.2854 14.1392 41.2526 13.1943 41.2526 11.8101V11.7954C41.2526 10.4551 42.2927 9.63477 44.1164 9.5249L46.2111 9.40039V8.82178C46.2111 7.97217 45.6618 7.45947 44.6804 7.45947C43.7648 7.45947 43.2009 7.8916 43.069 8.50684L43.0544 8.57275H41.5603L41.5676 8.49219C41.6774 7.1665 42.8273 6.14844 44.7243 6.14844C46.6066 6.14844 47.8005 7.14453 47.8005 8.68994V14H46.2111V12.7842H46.1818C45.7351 13.6118 44.8415 14.1392 43.8234 14.1392ZM42.8493 11.7734C42.8493 12.4473 43.406 12.8721 44.2556 12.8721C45.3688 12.8721 46.2111 12.1177 46.2111 11.1143V10.5137L44.3288 10.6309C43.3767 10.6895 42.8493 11.1069 42.8493 11.7588V11.7734ZM48.9472 14V3.43115H50.5292V14H48.9472ZM54.9938 14.1538C52.7306 14.1538 51.3609 12.6084 51.3609 10.1768V10.1694C51.3609 7.75977 52.7525 6.14844 54.9132 6.14844C57.0738 6.14844 58.3995 7.70117 58.3995 10.0156V10.5503H52.943C52.9723 12.0078 53.7706 12.8574 55.0304 12.8574C55.9679 12.8574 56.5904 12.374 56.7882 11.7954L56.8102 11.7368H58.3116L58.297 11.8174C58.048 13.0405 56.8614 14.1538 54.9938 14.1538ZM54.9205 7.44482C53.8951 7.44482 53.1041 8.14062 52.9649 9.42969H56.8321C56.7003 8.09668 55.9532 7.44482 54.9205 7.44482Z" fill="black"/>
<path d="M66 6H70.0564V10" stroke="black" stroke-width="0.8" stroke-linejoin="round"/>
<path d="M66 10L70.0564 6" stroke="black" stroke-width="0.8" stroke-linejoin="round"/>
<path d="M63 7V12.3333C63 12.5101 63.0702 12.6797 63.1953 12.8047C63.3203 12.9298 63.4899 13 63.6667 13H69" stroke="black" stroke-width="0.777778" stroke-linejoin="round"/>
</svg>
